<svg width="195" height="145" viewBox="0 0 195 145" fill="none" xmlns="http://www.w3.org/2000/svg">
<g opacity="0.8" clip-path="url(#clip0_2234_8808)" filter="url(#filter0_d_2234_8808)">
<path d="M9.3356 40.2644C9.3356 41.7838 8.19226 42.9234 6.6678 42.9234C5.14334 42.9234 4 41.7838 4 40.2644C4 38.745 5.14334 37.6055 6.6678 37.6055C8.19226 37.6055 9.3356 38.8716 9.3356 40.2644Z" fill="white"/>
<path d="M32.0753 40.2644C32.0753 41.7838 30.932 42.9234 29.4075 42.9234C27.8831 42.9234 26.7397 41.7838 26.7397 40.2644C26.7397 38.745 27.8831 37.6055 29.4075 37.6055C30.805 37.6055 32.0753 38.8716 32.0753 40.2644Z" fill="white"/>
<path d="M54.6881 40.2644C54.6881 41.7838 53.5448 42.9234 52.0203 42.9234C50.4959 42.9234 49.3525 41.7838 49.3525 40.2644C49.3525 38.745 50.4959 37.6055 52.0203 37.6055C53.5448 37.6055 54.6881 38.8716 54.6881 40.2644Z" fill="white"/>
<path d="M77.4279 40.2644C77.4279 41.7838 76.2845 42.9234 74.7601 42.9234C73.2356 42.9234 72.0923 41.7838 72.0923 40.2644C72.0923 38.745 73.2356 37.6055 74.7601 37.6055C76.2845 37.6055 77.4279 38.8716 77.4279 40.2644Z" fill="white"/>
<path d="M100.168 40.2644C100.168 41.7838 99.0243 42.9234 97.4998 42.9234C95.9754 42.9234 94.832 41.7838 94.832 40.2644C94.832 38.745 95.9754 37.6055 97.4998 37.6055C98.8972 37.6055 100.168 38.8716 100.168 40.2644Z" fill="white"/>
<path d="M122.908 40.2644C122.908 41.7838 121.765 42.9234 120.24 42.9234C118.716 42.9234 117.572 41.7838 117.572 40.2644C117.572 38.745 118.716 37.6055 120.24 37.6055C121.765 37.6055 122.908 38.8716 122.908 40.2644Z" fill="white"/>
<path d="M145.52 40.2644C145.52 41.7838 144.377 42.9234 142.852 42.9234C141.328 42.9234 140.185 41.7838 140.185 40.2644C140.185 38.745 141.328 37.6055 142.852 37.6055C144.377 37.6055 145.52 38.8716 145.52 40.2644Z" fill="white"/>
<path d="M168.26 40.2644C168.26 41.7838 167.117 42.9234 165.592 42.9234C164.068 42.9234 162.924 41.7838 162.924 40.2644C162.924 38.745 164.068 37.6055 165.592 37.6055C167.117 37.6055 168.26 38.8716 168.26 40.2644Z" fill="white"/>
<path d="M191 40.2644C191 41.7838 189.857 42.9234 188.332 42.9234C186.808 42.9234 185.665 41.7838 185.665 40.2644C185.665 38.745 186.808 37.6055 188.332 37.6055C189.73 37.6055 191 38.8716 191 40.2644Z" fill="white"/>
<path d="M9.3356 59.1306C9.3356 60.6501 8.19226 61.7896 6.6678 61.7896C5.14334 61.7896 4 60.6501 4 59.1306C4 57.6112 5.14334 56.4717 6.6678 56.4717C8.19226 56.4717 9.3356 57.6112 9.3356 59.1306Z" fill="white"/>
<path d="M32.0753 59.1306C32.0753 60.6501 30.932 61.7896 29.4075 61.7896C27.8831 61.7896 26.7397 60.6501 26.7397 59.1306C26.7397 57.6112 27.8831 56.4717 29.4075 56.4717C30.805 56.4717 32.0753 57.6112 32.0753 59.1306Z" fill="white"/>
<path d="M54.6881 59.1306C54.6881 60.6501 53.5448 61.7896 52.0203 61.7896C50.4959 61.7896 49.3525 60.6501 49.3525 59.1306C49.3525 57.6112 50.4959 56.4717 52.0203 56.4717C53.5448 56.4717 54.6881 57.6112 54.6881 59.1306Z" fill="white"/>
<path d="M77.4279 59.1306C77.4279 60.6501 76.2845 61.7896 74.7601 61.7896C73.2356 61.7896 72.0923 60.6501 72.0923 59.1306C72.0923 57.6112 73.2356 56.4717 74.7601 56.4717C76.2845 56.4717 77.4279 57.6112 77.4279 59.1306Z" fill="white"/>
<path d="M100.168 59.1306C100.168 60.6501 99.0243 61.7896 97.4998 61.7896C95.9754 61.7896 94.832 60.6501 94.832 59.1306C94.832 57.6112 95.9754 56.4717 97.4998 56.4717C98.8972 56.4717 100.168 57.6112 100.168 59.1306Z" fill="white"/>
<path d="M122.908 59.1306C122.908 60.6501 121.765 61.7896 120.24 61.7896C118.716 61.7896 117.572 60.6501 117.572 59.1306C117.572 57.6112 118.716 56.4717 120.24 56.4717C121.765 56.4717 122.908 57.6112 122.908 59.1306Z" fill="white"/>
<path d="M145.52 59.1306C145.52 60.6501 144.377 61.7896 142.852 61.7896C141.328 61.7896 140.185 60.6501 140.185 59.1306C140.185 57.6112 141.328 56.4717 142.852 56.4717C144.377 56.4717 145.52 57.6112 145.52 59.1306Z" fill="white"/>
<path d="M168.26 59.1306C168.26 60.6501 167.117 61.7896 165.592 61.7896C164.068 61.7896 162.924 60.6501 162.924 59.1306C162.924 57.6112 164.068 56.4717 165.592 56.4717C167.117 56.4717 168.26 57.6112 168.26 59.1306Z" fill="white"/>
<path d="M191 59.1306C191 60.6501 189.857 61.7896 188.332 61.7896C186.808 61.7896 185.665 60.6501 185.665 59.1306C185.665 57.6112 186.808 56.4717 188.332 56.4717C189.73 56.4717 191 57.6112 191 59.1306Z" fill="white"/>
<path d="M9.3356 2.65896C9.3356 4.17837 8.19226 5.31793 6.6678 5.31793C5.14334 5.31793 4 4.17837 4 2.65896C4 1.13956 5.14334 0 6.6678 0C8.19226 0 9.3356 1.13956 9.3356 2.65896Z" fill="white"/>
<path d="M32.0753 2.65896C32.0753 4.17837 30.932 5.31793 29.4075 5.31793C27.8831 5.31793 26.7397 4.17837 26.7397 2.65896C26.7397 1.13956 27.8831 0 29.4075 0C30.805 0 32.0753 1.13956 32.0753 2.65896Z" fill="white"/>
<path d="M54.6881 2.65896C54.6881 4.17837 53.5448 5.31793 52.0203 5.31793C50.4959 5.31793 49.3525 4.17837 49.3525 2.65896C49.3525 1.13956 50.6229 0 52.0203 0C53.5448 0 54.6881 1.13956 54.6881 2.65896Z" fill="white"/>
<path d="M77.4279 2.65896C77.4279 4.17837 76.2845 5.31793 74.7601 5.31793C73.2356 5.31793 72.0923 4.17837 72.0923 2.65896C72.0923 1.13956 73.3627 0 74.7601 0C76.1575 0 77.4279 1.13956 77.4279 2.65896Z" fill="white"/>
<path d="M100.168 2.65896C100.168 4.17837 99.0243 5.31793 97.4998 5.31793C95.9754 5.31793 94.832 4.17837 94.832 2.65896C94.832 1.13956 95.9754 0 97.4998 0C98.8972 0 100.168 1.13956 100.168 2.65896Z" fill="white"/>
<path d="M122.908 2.65896C122.908 4.17837 121.765 5.31793 120.24 5.31793C118.716 5.31793 117.572 4.17837 117.572 2.65896C117.572 1.13956 118.716 0 120.24 0C121.765 0 122.908 1.13956 122.908 2.65896Z" fill="white"/>
<path d="M145.52 2.65896C145.52 4.17837 144.377 5.31793 142.852 5.31793C141.328 5.31793 140.185 4.17837 140.185 2.65896C140.185 1.13956 141.328 0 142.852 0C144.377 0 145.52 1.13956 145.52 2.65896Z" fill="white"/>
<path d="M168.26 2.65896C168.26 4.17837 167.117 5.31793 165.592 5.31793C164.068 5.31793 162.924 4.17837 162.924 2.65896C162.924 1.13956 164.068 0 165.592 0C167.117 0 168.26 1.13956 168.26 2.65896Z" fill="white"/>
<path d="M191 2.65896C191 4.17837 189.857 5.31793 188.332 5.31793C186.808 5.31793 185.665 4.17837 185.665 2.65896C185.665 1.13956 186.808 0 188.332 0C189.73 0 191 1.13956 191 2.65896Z" fill="white"/>
<path d="M9.3356 21.5252C9.3356 23.0446 8.19226 24.1841 6.6678 24.1841C5.14334 24.1841 4 22.918 4 21.5252C4 20.0058 5.14334 18.8662 6.6678 18.8662C8.19226 18.8662 9.3356 20.0058 9.3356 21.5252Z" fill="white"/>
<path d="M32.0753 21.5252C32.0753 23.0446 30.932 24.1841 29.4075 24.1841C27.8831 24.1841 26.7397 23.0446 26.7397 21.5252C26.7397 20.0058 27.8831 18.8662 29.4075 18.8662C30.805 18.8662 32.0753 20.0058 32.0753 21.5252Z" fill="white"/>
<path d="M54.6881 21.5252C54.6881 23.0446 53.5448 24.1841 52.0203 24.1841C50.4959 24.1841 49.3525 23.0446 49.3525 21.5252C49.3525 20.0058 50.4959 18.8662 52.0203 18.8662C53.5448 18.8662 54.6881 20.0058 54.6881 21.5252Z" fill="white"/>
<path d="M77.4279 21.5252C77.4279 23.0446 76.2845 24.1841 74.7601 24.1841C73.2356 24.1841 72.0923 23.0446 72.0923 21.5252C72.0923 20.0058 73.2356 18.8662 74.7601 18.8662C76.2845 18.8662 77.4279 20.0058 77.4279 21.5252Z" fill="white"/>
<path d="M100.168 21.5252C100.168 23.0446 99.0243 24.1841 97.4998 24.1841C95.9754 24.1841 94.832 23.0446 94.832 21.5252C94.832 20.0058 95.9754 18.8662 97.4998 18.8662C98.8972 18.8662 100.168 20.0058 100.168 21.5252Z" fill="white"/>
<path d="M122.908 21.5252C122.908 23.0446 121.765 24.1841 120.24 24.1841C118.716 24.1841 117.572 23.0446 117.572 21.5252C117.572 20.0058 118.716 18.8662 120.24 18.8662C121.765 18.8662 122.908 20.0058 122.908 21.5252Z" fill="white"/>
<path d="M145.52 21.5252C145.52 23.0446 144.377 24.1841 142.852 24.1841C141.328 24.1841 140.185 23.0446 140.185 21.5252C140.185 20.0058 141.328 18.8662 142.852 18.8662C144.377 18.8662 145.52 20.0058 145.52 21.5252Z" fill="white"/>
<path d="M168.26 21.5252C168.26 23.0446 167.117 24.1841 165.592 24.1841C164.068 24.1841 162.924 23.0446 162.924 21.5252C162.924 20.0058 164.068 18.8662 165.592 18.8662C167.117 18.8662 168.26 20.0058 168.26 21.5252Z" fill="white"/>
<path d="M191 21.5252C191 23.0446 189.857 24.1841 188.332 24.1841C186.808 24.1841 185.665 23.0446 185.665 21.5252C185.665 20.0058 186.808 18.8662 188.332 18.8662C189.73 18.8662 191 20.0058 191 21.5252Z" fill="white"/>
<path d="M9.3356 77.8699C9.3356 79.3893 8.19226 80.5289 6.6678 80.5289C5.14334 80.5289 4 79.3893 4 77.8699C4 76.3505 5.14334 75.2109 6.6678 75.2109C8.19226 75.2109 9.3356 76.4771 9.3356 77.8699Z" fill="white"/>
<path d="M32.0753 77.8699C32.0753 79.3893 30.932 80.5289 29.4075 80.5289C27.8831 80.5289 26.7397 79.3893 26.7397 77.8699C26.7397 76.3505 27.8831 75.2109 29.4075 75.2109C30.805 75.2109 32.0753 76.4771 32.0753 77.8699Z" fill="white"/>
<path d="M54.6881 77.8699C54.6881 79.3893 53.5448 80.5289 52.0203 80.5289C50.4959 80.5289 49.3525 79.3893 49.3525 77.8699C49.3525 76.3505 50.4959 75.2109 52.0203 75.2109C53.5448 75.2109 54.6881 76.4771 54.6881 77.8699Z" fill="white"/>
<path d="M77.4279 77.8699C77.4279 79.3893 76.2845 80.5289 74.7601 80.5289C73.2356 80.5289 72.0923 79.3893 72.0923 77.8699C72.0923 76.3505 73.2356 75.2109 74.7601 75.2109C76.2845 75.2109 77.4279 76.4771 77.4279 77.8699Z" fill="white"/>
<path d="M100.168 77.8699C100.168 79.3893 99.0243 80.5289 97.4998 80.5289C95.9754 80.5289 94.832 79.3893 94.832 77.8699C94.832 76.3505 95.9754 75.2109 97.4998 75.2109C98.8972 75.2109 100.168 76.4771 100.168 77.8699Z" fill="white"/>
<path d="M122.908 77.8699C122.908 79.3893 121.765 80.5289 120.24 80.5289C118.716 80.5289 117.572 79.3893 117.572 77.8699C117.572 76.3505 118.716 75.2109 120.24 75.2109C121.765 75.2109 122.908 76.4771 122.908 77.8699Z" fill="white"/>
<path d="M145.52 77.8699C145.52 79.3893 144.377 80.5289 142.852 80.5289C141.328 80.5289 140.185 79.3893 140.185 77.8699C140.185 76.3505 141.328 75.2109 142.852 75.2109C144.377 75.2109 145.52 76.4771 145.52 77.8699Z" fill="white"/>
<path d="M168.26 77.8699C168.26 79.3893 167.117 80.5289 165.592 80.5289C164.068 80.5289 162.924 79.3893 162.924 77.8699C162.924 76.3505 164.068 75.2109 165.592 75.2109C167.117 75.2109 168.26 76.4771 168.26 77.8699Z" fill="white"/>
<path d="M191 77.8699C191 79.3893 189.857 80.5289 188.332 80.5289C186.808 80.5289 185.665 79.3893 185.665 77.8699C185.665 76.3505 186.808 75.2109 188.332 75.2109C189.73 75.2109 191 76.4771 191 77.8699Z" fill="white"/>
<path d="M9.3356 96.7361C9.3356 98.2555 8.19226 99.3951 6.6678 99.3951C5.14334 99.3951 4 98.2555 4 96.7361C4 95.2167 5.14334 94.0771 6.6678 94.0771C8.19226 94.0771 9.3356 95.2167 9.3356 96.7361Z" fill="white"/>
<path d="M32.0753 96.7361C32.0753 98.2555 30.932 99.3951 29.4075 99.3951C27.8831 99.3951 26.7397 98.2555 26.7397 96.7361C26.7397 95.2167 27.8831 94.0771 29.4075 94.0771C30.805 94.0771 32.0753 95.2167 32.0753 96.7361Z" fill="white"/>
<path d="M54.6881 96.7361C54.6881 98.2555 53.5448 99.3951 52.0203 99.3951C50.4959 99.3951 49.3525 98.2555 49.3525 96.7361C49.3525 95.2167 50.4959 94.0771 52.0203 94.0771C53.5448 94.0771 54.6881 95.2167 54.6881 96.7361Z" fill="white"/>
<path d="M74.7601 99.3951C76.2335 99.3951 77.4279 98.2046 77.4279 96.7361C77.4279 95.2676 76.2335 94.0771 74.7601 94.0771C73.2867 94.0771 72.0923 95.2676 72.0923 96.7361C72.0923 98.2046 73.2867 99.3951 74.7601 99.3951Z" fill="white"/>
<path d="M100.168 96.7361C100.168 98.2555 99.0243 99.3951 97.4998 99.3951C95.9754 99.3951 94.832 98.2555 94.832 96.7361C94.832 95.2167 95.9754 94.0771 97.4998 94.0771C98.8972 94.0771 100.168 95.2167 100.168 96.7361Z" fill="white"/>
<path d="M122.908 96.7361C122.908 98.2555 121.765 99.3951 120.24 99.3951C118.716 99.3951 117.572 98.2555 117.572 96.7361C117.572 95.2167 118.716 94.0771 120.24 94.0771C121.765 94.0771 122.908 95.2167 122.908 96.7361Z" fill="white"/>
<path d="M145.52 96.7361C145.52 98.2555 144.377 99.3951 142.852 99.3951C141.328 99.3951 140.185 98.2555 140.185 96.7361C140.185 95.2167 141.328 94.0771 142.852 94.0771C144.377 94.0771 145.52 95.2167 145.52 96.7361Z" fill="white"/>
<path d="M165.592 99.3951C167.065 99.3951 168.26 98.2046 168.26 96.7361C168.26 95.2676 167.065 94.0771 165.592 94.0771C164.119 94.0771 162.924 95.2676 162.924 96.7361C162.924 98.2046 164.119 99.3951 165.592 99.3951Z" fill="white"/>
<path d="M191 96.7361C191 98.2555 189.857 99.3951 188.332 99.3951C186.808 99.3951 185.665 98.2555 185.665 96.7361C185.665 95.2167 186.808 94.0771 188.332 94.0771C189.73 94.0771 191 95.2167 191 96.7361Z" fill="white"/>
<path d="M9.3356 115.601C9.3356 117.121 8.19226 118.26 6.6678 118.26C5.14334 118.26 4 117.121 4 115.601C4 114.082 5.14334 112.942 6.6678 112.942C8.19226 112.942 9.3356 114.082 9.3356 115.601Z" fill="white"/>
<path d="M32.0753 115.601C32.0753 117.121 30.932 118.26 29.4075 118.26C27.8831 118.26 26.7397 117.121 26.7397 115.601C26.7397 114.082 27.8831 112.942 29.4075 112.942C30.805 112.942 32.0753 114.082 32.0753 115.601Z" fill="white"/>
<path d="M54.6881 115.601C54.6881 117.121 53.5448 118.26 52.0203 118.26C50.4959 118.26 49.3525 117.121 49.3525 115.601C49.3525 114.082 50.4959 112.942 52.0203 112.942C53.5448 112.942 54.6881 114.082 54.6881 115.601Z" fill="white"/>
<path d="M77.4279 115.601C77.4279 117.121 76.2845 118.26 74.7601 118.26C73.2356 118.26 72.0923 117.121 72.0923 115.601C72.0923 114.082 73.2356 112.942 74.7601 112.942C76.2845 112.942 77.4279 114.082 77.4279 115.601Z" fill="white"/>
<path d="M100.168 115.601C100.168 117.121 99.0243 118.26 97.4998 118.26C95.9754 118.26 94.832 117.121 94.832 115.601C94.832 114.082 95.9754 112.942 97.4998 112.942C98.8972 112.942 100.168 114.082 100.168 115.601Z" fill="white"/>
<path d="M122.908 115.601C122.908 117.121 121.765 118.26 120.24 118.26C118.716 118.26 117.572 117.121 117.572 115.601C117.572 114.082 118.716 112.942 120.24 112.942C121.765 112.942 122.908 114.082 122.908 115.601Z" fill="white"/>
<path d="M145.52 115.601C145.52 117.121 144.377 118.26 142.852 118.26C141.328 118.26 140.185 117.121 140.185 115.601C140.185 114.082 141.328 112.942 142.852 112.942C144.377 112.942 145.52 114.082 145.52 115.601Z" fill="white"/>
<path d="M168.26 115.601C168.26 117.121 167.117 118.26 165.592 118.26C164.068 118.26 162.924 117.121 162.924 115.601C162.924 114.082 164.068 112.942 165.592 112.942C167.117 112.942 168.26 114.082 168.26 115.601Z" fill="white"/>
<path d="M191 115.601C191 117.121 189.857 118.26 188.332 118.26C186.808 118.26 185.665 117.121 185.665 115.601C185.665 114.082 186.808 112.942 188.332 112.942C189.73 112.942 191 114.082 191 115.601Z" fill="white"/>
<path d="M9.3356 134.341C9.3356 135.86 8.19226 137 6.6678 137C5.14334 137 4 135.86 4 134.341C4 132.821 5.14334 131.682 6.6678 131.682C8.19226 131.682 9.3356 132.948 9.3356 134.341Z" fill="white"/>
<path d="M32.0753 134.341C32.0753 135.86 30.932 137 29.4075 137C27.8831 137 26.7397 135.86 26.7397 134.341C26.7397 132.821 27.8831 131.682 29.4075 131.682C30.805 131.682 32.0753 132.948 32.0753 134.341Z" fill="white"/>
<path d="M54.6881 134.341C54.6881 135.86 53.5448 137 52.0203 137C50.4959 137 49.3525 135.86 49.3525 134.341C49.3525 132.821 50.4959 131.682 52.0203 131.682C53.5448 131.682 54.6881 132.948 54.6881 134.341Z" fill="white"/>
<path d="M77.4279 134.341C77.4279 135.86 76.2845 137 74.7601 137C73.2356 137 72.0923 135.86 72.0923 134.341C72.0923 132.821 73.2356 131.682 74.7601 131.682C76.2845 131.682 77.4279 132.948 77.4279 134.341Z" fill="white"/>
<path d="M100.168 134.341C100.168 135.86 99.0243 137 97.4998 137C95.9754 137 94.832 135.86 94.832 134.341C94.832 132.821 95.9754 131.682 97.4998 131.682C98.8972 131.682 100.168 132.948 100.168 134.341Z" fill="white"/>
<path d="M122.908 134.341C122.908 135.86 121.765 137 120.24 137C118.716 137 117.572 135.86 117.572 134.341C117.572 132.821 118.716 131.682 120.24 131.682C121.765 131.682 122.908 132.948 122.908 134.341Z" fill="white"/>
<path d="M145.52 134.341C145.52 135.86 144.377 137 142.852 137C141.328 137 140.185 135.86 140.185 134.341C140.185 132.821 141.328 131.682 142.852 131.682C144.377 131.682 145.52 132.948 145.52 134.341Z" fill="white"/>
<path d="M168.26 134.341C168.26 135.86 167.117 137 165.592 137C164.068 137 162.924 135.86 162.924 134.341C162.924 132.821 164.068 131.682 165.592 131.682C167.117 131.682 168.26 132.948 168.26 134.341Z" fill="white"/>
<path d="M191 134.341C191 135.86 189.857 137 188.332 137C186.808 137 185.665 135.86 185.665 134.341C185.665 132.821 186.808 131.682 188.332 131.682C189.73 131.682 191 132.948 191 134.341Z" fill="white"/>
</g>
<defs>
<filter id="filter0_d_2234_8808" x="0" y="0" width="195" height="145" filterUnits="userSpaceOnUse" color-interpolation-filters="sRGB">
<feFlood flood-opacity="0" result="BackgroundImageFix"/>
<feColorMatrix in="SourceAlpha" type="matrix" values="0 0 0 0 0 0 0 0 0 0 0 0 0 0 0 0 0 0 127 0" result="hardAlpha"/>
<feOffset dy="4"/>
<feGaussianBlur stdDeviation="2"/>
<feComposite in2="hardAlpha" operator="out"/>
<feColorMatrix type="matrix" values="0 0 0 0 0 0 0 0 0 0 0 0 0 0 0 0 0 0 0.25 0"/>
<feBlend mode="normal" in2="BackgroundImageFix" result="effect1_dropShadow_2234_8808"/>
<feBlend mode="normal" in="SourceGraphic" in2="effect1_dropShadow_2234_8808" result="shape"/>
</filter>
<clipPath id="clip0_2234_8808">
<rect width="187" height="137" fill="white" transform="translate(4)"/>
</clipPath>
</defs>
</svg>
